<svg width="108" height="21" viewBox="0 0 108 21" fill="none" xmlns="http://www.w3.org/2000/svg">
<path d="M11.864 12.328C12.616 12.824 13.376 13.392 14.144 14.032L13.664 17.056C11.488 18.448 8.8 19.312 5.6 19.648C4.688 19.744 3.824 19.792 3.008 19.792L0.296 17.344C2.344 12.816 4.768 8.856 7.568 5.464C6.336 5.288 5.36 5.2 4.64 5.2L5.672 2.344C7.592 2.424 9.44 2.616 11.216 2.92C12.992 3.208 14.728 3.72 16.424 4.456L18.248 8.512C16.536 10.304 14.408 11.576 11.864 12.328ZM7.904 10.672C9.504 10.288 10.704 9.904 11.504 9.52C12.784 8.928 13.848 8.256 14.696 7.504C13.016 6.656 10.856 6.016 8.216 5.584L10.352 7.312C9.168 8.848 8.352 9.968 7.904 10.672ZM4.496 16.528C7.056 16.432 9.176 15.928 10.856 15.016C10.296 14.376 9.296 13.72 7.856 13.048C7.456 12.872 7.072 12.704 6.704 12.544C5.856 13.92 5.12 15.248 4.496 16.528ZM16.3239 16.888C17.0119 14.408 18.2359 11.6 19.9959 8.464C21.1639 6.384 22.4759 4.536 23.9319 2.92C24.6679 2.104 25.4279 1.416 26.2119 0.855999L30.2679 3.712C29.7239 8.08 27.7399 11.16 24.3159 12.952C23.2119 13.528 21.9799 13.984 20.6199 14.32C20.2359 15.264 19.9399 16.072 19.7319 16.744C21.7159 16.472 23.2599 16.168 24.3639 15.832C26.5239 15.192 28.3239 14.392 29.7639 13.432L30.2679 15.856C27.9159 17.488 25.2439 18.624 22.2519 19.264C21.2599 19.472 20.2759 19.6 19.2999 19.648L16.3239 16.888ZM22.0119 11.32C23.4679 10.632 24.6279 9.64 25.4919 8.344C26.3559 7.048 26.9319 5.528 27.2199 3.784C25.9559 4.92 24.6039 6.728 23.1639 9.208C22.7479 9.912 22.3639 10.616 22.0119 11.32ZM35.6764 17.488C34.4124 18.48 32.9564 19.2 31.3084 19.648L28.3324 16.888C28.3324 15.624 28.5244 14.384 28.9084 13.168C29.2924 11.952 29.8604 10.856 30.6124 9.88C31.3644 8.904 32.2924 8.096 33.3964 7.456C34.5164 6.8 35.8044 6.408 37.2604 6.28L38.8444 8.704C39.0364 8.4 39.4444 7.872 40.0684 7.12L42.4204 9.136C40.8364 11.2 39.5244 13.408 38.4844 15.76L38.4124 15.808C39.3404 15.568 40.4284 15.16 41.6764 14.584C42.9244 13.992 43.7164 13.608 44.0524 13.432L44.5804 15.856C43.6364 16.544 42.0684 17.432 39.8764 18.52C39.0124 18.952 38.2284 19.296 37.5244 19.552L35.6764 17.488ZM31.6924 16.192C33.4044 15.728 34.9644 14.592 36.3724 12.784C36.7884 11.872 37.1004 10.736 37.3084 9.376C35.6604 9.536 34.3084 10.264 33.2524 11.56C32.2124 12.84 31.6924 14.384 31.6924 16.192ZM46.0775 16.528C49.9975 16.016 53.4055 14.984 56.3015 13.432L56.8295 15.856C54.3655 17.408 51.6295 18.536 48.6215 19.24C47.6135 19.464 46.6215 19.6 45.6455 19.648L42.6695 16.888C42.6695 15.752 42.7415 14.872 42.8855 14.248C43.5095 11.608 45.0375 9.48 47.4695 7.864C48.5575 7.144 49.6615 6.608 50.7815 6.256L54.6215 9.112C54.5415 9.48 54.3175 10.064 53.9495 10.864C53.3415 12.208 52.8615 13.128 52.5095 13.624L49.4855 11.704C50.3495 10.616 50.8935 9.704 51.1175 8.968C49.5815 9.624 48.3335 10.68 47.3735 12.136C46.5095 13.448 46.0775 14.912 46.0775 16.528ZM69.5835 15.856C67.4075 17.312 65.1755 18.576 62.8875 19.648L59.8875 17.536C59.3915 16.128 59.0635 14.768 58.9035 13.456C58.0875 15.312 57.2795 17.376 56.4795 19.648L53.6235 17.8C55.0155 14.056 56.9275 10.04 59.3595 5.752C60.1275 4.408 60.9115 3.112 61.7115 1.864L64.1835 3.712C62.5675 6.096 61.0555 8.784 59.6475 11.776C61.7915 9.776 64.0155 7.952 66.3195 6.304L68.7675 8.584C65.8235 10.456 63.5515 11.968 61.9515 13.12C62.2235 13.888 62.6315 14.824 63.1755 15.928C65.2075 15.24 67.1675 14.408 69.0555 13.432L69.5835 15.856ZM66.5817 17.176C67.8457 14.392 69.6377 11.328 71.9577 7.984C72.6457 6.992 73.2857 6.136 73.8777 5.416C72.7577 5.24 71.8377 5.152 71.1177 5.152L72.2217 2.176C76.4937 2.32 80.3737 3.088 83.8617 4.48L82.4937 7.96C80.1737 6.936 77.5497 6.128 74.6217 5.536L76.6857 7.24C75.9337 8.216 75.1257 9.328 74.2617 10.576C75.2377 10.768 76.8217 11.208 79.0137 11.896L77.8377 14.824L74.9097 13.864C74.1737 13.64 73.3977 13.424 72.5817 13.216C71.2057 15.536 70.1177 17.696 69.3177 19.696L66.5817 17.176ZM90.0573 13.888C91.0173 15.424 92.1693 16.904 93.5133 18.328L90.3213 20.392C88.8493 18.488 87.4333 16.216 86.0733 13.576C84.9693 15.48 83.9693 17.52 83.0733 19.696L80.3613 17.2C81.4333 14.832 82.3933 12.952 83.2413 11.56C84.6173 9.272 86.0493 7.248 87.5373 5.488C86.4333 5.296 85.4333 5.2 84.5373 5.2L85.5693 2.344C88.5773 2.44 91.1933 2.832 93.4173 3.52C94.2493 3.776 95.0893 4.088 95.9373 4.456L97.8093 8.584C96.1773 10.744 93.5933 12.512 90.0573 13.888ZM87.0333 11.968C89.2093 11.136 91.1453 10.088 92.8413 8.824C93.4173 8.408 93.9133 7.984 94.3293 7.552C92.8093 6.752 90.7933 6.112 88.2813 5.632L90.3453 7.312C89.0653 8.944 87.9613 10.496 87.0333 11.968ZM96.1989 17.152C98.5509 11.856 101.415 6.96 104.791 2.464L107.239 4.96C105.607 7.216 104.271 9.28 103.231 11.152C101.391 14.48 99.9669 17.328 98.9589 19.696L96.1989 17.152Z" fill="black"/>
</svg>
