<svg width="22" height="22" viewBox="0 0 22 22" fill="none" xmlns="http://www.w3.org/2000/svg">
<path d="M10.9999 12.333C7.43992 12.333 0.333252 14.1197 0.333252 17.6663V20.6663C0.333252 21.2186 0.780967 21.6663 1.33325 21.6663H20.6666C21.2189 21.6663 21.6666 21.2186 21.6666 20.6663V17.6663C21.6666 14.1197 14.5599 12.333 10.9999 12.333ZM19.1333 18.133C19.1333 18.6853 18.6855 19.133 18.1333 19.133H3.86659C3.3143 19.133 2.86659 18.6853 2.86659 18.133V17.6663C2.86659 16.813 7.03992 14.8663 10.9999 14.8663C14.9599 14.8663 19.1333 16.813 19.1333 17.6663V18.133ZM10.9999 10.9997C13.9466 10.9997 16.3333 8.61301 16.3333 5.66634C16.3333 2.71967 13.9466 0.333008 10.9999 0.333008C8.05325 0.333008 5.66658 2.71967 5.66658 5.66634C5.66658 8.61301 8.05325 10.9997 10.9999 10.9997ZM10.9999 2.86634C12.5466 2.86634 13.7999 4.11967 13.7999 5.66634C13.7999 7.21301 12.5466 8.46634 10.9999 8.46634C9.45325 8.46634 8.19992 7.21301 8.19992 5.66634C8.19992 4.11967 9.45325 2.86634 10.9999 2.86634Z" fill="#323232"/>
</svg>
