<svg width="32" height="32" viewBox="0 0 32 32" fill="none" xmlns="http://www.w3.org/2000/svg">
<path d="M29.3333 12H23.4813C23.1472 12 22.8352 11.8332 22.6497 11.5553L17.1066 3.25336C16.8533 2.88003 16.4266 2.69336 15.9999 2.69336C15.5733 2.69336 15.1466 2.88003 14.8933 3.26669L9.35024 11.5559C9.16466 11.8334 8.85283 12 8.51897 12H2.66659C1.93325 12 1.33325 12.6 1.33325 13.3334C1.33325 13.4534 1.34659 13.5734 1.38659 13.6934L4.77325 26.0534C5.07992 27.1734 6.10659 28 7.33325 28H24.6666C25.8933 28 26.9199 27.1734 27.2399 26.0534L30.6058 13.7691C30.6196 13.7187 30.6295 13.6673 30.6353 13.6153L30.6666 13.3334C30.6666 12.6 30.0666 12 29.3333 12ZM15.1679 7.6481C15.5637 7.05437 16.4361 7.05437 16.832 7.6481L18.6968 10.4453C19.1398 11.1099 18.6634 12 17.8647 12H14.1351C13.3364 12 12.86 11.1099 13.3031 10.4453L15.1679 7.6481ZM24.8685 24.5991C24.7492 25.0329 24.3549 25.3336 23.9051 25.3339L8.10957 25.3461C7.659 25.3465 7.26384 25.0454 7.14451 24.611L4.76065 15.9315C4.58582 15.295 5.06482 14.6667 5.72494 14.6667H26.2878C26.948 14.6667 27.4271 15.2952 27.252 15.9318L24.8685 24.5991ZM15.9999 17.3334C14.5333 17.3334 13.3333 18.5334 13.3333 20C13.3333 21.4667 14.5333 22.6667 15.9999 22.6667C17.4666 22.6667 18.6666 21.4667 18.6666 20C18.6666 18.5334 17.4666 17.3334 15.9999 17.3334Z" fill="#323232"/>
</svg>
