<svg width="12" height="12" viewBox="0 0 12 12" fill="none" xmlns="http://www.w3.org/2000/svg">
<path d="M11.7744 4.93396C12.1081 4.64441 11.9298 4.09614 11.4897 4.05819L8.173 3.77219C7.98857 3.75629 7.82803 3.63979 7.7557 3.4694L6.46052 0.418123C6.28806 0.0118222 5.71215 0.0119787 5.53991 0.418373L4.24424 3.4754C4.17188 3.64615 4.01094 3.76282 3.82615 3.7785L0.514068 4.05949C0.0733551 4.09688 -0.10535 4.64601 0.228949 4.93562L2.74515 7.1154C2.88543 7.23693 2.94686 7.42616 2.90469 7.60691L2.14913 10.8457C2.04865 11.2764 2.51576 11.6159 2.89442 11.3874L5.74155 9.66895C5.90045 9.57305 6.09939 9.57305 6.25829 9.66895L9.10733 11.3885C9.48571 11.6169 9.9526 11.278 9.85277 10.8475L9.10124 7.60625C9.05941 7.42584 9.12073 7.23709 9.26059 7.1157L11.7744 4.93396ZM6.25844 8.42269C6.09948 8.32655 5.90031 8.32647 5.74127 8.42249L4.50833 9.16685C4.12961 9.39549 3.66237 9.05584 3.76302 8.62505L4.09128 7.22011C4.1335 7.03943 4.07219 6.85024 3.93203 6.72866L2.83856 5.7801C2.50492 5.49068 2.68296 4.94246 3.12298 4.90428L4.56627 4.77906C4.751 4.76304 4.91168 4.64611 4.98375 4.47527L5.54001 3.1566C5.71182 2.74931 6.28885 2.74896 6.46115 3.15604L7.02258 4.48246C7.09477 4.65301 7.25531 4.76969 7.43982 4.78569L8.88352 4.91095C9.32355 4.94912 9.50158 5.49735 9.16794 5.78677L8.07447 6.73532C7.93432 6.8569 7.87301 7.0461 7.91522 7.22678L8.24319 8.63047C8.34388 9.06144 7.87626 9.40111 7.49755 9.17207L6.25844 8.42269Z" fill="#323232"/>
</svg>
